# xmcd
#
# Track frame offsets:
#	150
#	17592
#	34141
#	47943
#	59958
#	71008
#	87692
#	104205
#	118498
#	134916
#	144914
#	160859
#	176404
#	195347
#
# Disc length: 2816 seconds
# Revision: 0
# Processed by: cddbd v1.5.2PL0 Copyright (c) Steve Scherf et al.
# Submitted via: dBpowerAMP V12.0
#
DISCID=de0afe0e
DTITLE=H.R.Cook - Neongrass
DYEAR=2008
DGENRE=Bluegrass
TTITLE0=Sid
TTITLE1=East Virginia BLues
TTITLE2=Weeds
TTITLE3=Zero to Love
TTITLE4=Train to Memphis
TTITLE5=January's Cold
TTITLE6=Buffalo Again
TTITLE7=Blue Moon
TTITLE8=Virginia's in the South
TTITLE9=Handsome Molly
TTITLE10=Shades of Grey
TTITLE11=Ghostriders in the Sky
TTITLE12=Deja Vu
TTITLE13=Ol' Brown Suitcase
EXTD=
EXTT0=
EXTT1=
EXTT2=
EXTT3=
EXTT4=
EXTT5=
EXTT6=
EXTT7=
EXTT8=
EXTT9=
EXTT10=
EXTT11=
EXTT12=
EXTT13=
PLAYORDER=
